<svg id="Capa_1" enable-background="new 0 0 510.628 510.628" height="512" viewBox="0 0 510.628 510.628" width="512" xmlns="http://www.w3.org/2000/svg"><path d="m420.391 255.314c8.982-9.572 17.131-19.161 24.31-28.666 33.245-44.019 42.485-82.514 26.018-108.395-16.467-25.88-55.251-33.817-109.209-22.35-7.049 1.498-14.279 3.311-21.65 5.406-2.19-7.343-4.542-14.417-7.062-21.168-19.291-51.68-46.809-80.141-77.484-80.141s-58.193 28.461-77.484 80.141c-2.52 6.751-4.872 13.825-7.062 21.168-7.371-2.095-14.602-3.908-21.65-5.406-53.958-11.468-92.742-3.53-109.209 22.35-16.467 25.881-7.228 64.376 26.018 108.395 7.179 9.505 15.328 19.094 24.31 28.666-8.982 9.572-17.131 19.161-24.31 28.666-33.245 44.019-42.485 82.514-26.018 108.395 11.546 18.146 34.063 27.471 65.091 27.471 13.224 0 27.995-1.694 44.119-5.121 7.049-1.498 14.279-3.311 21.65-5.406 2.19 7.343 4.542 14.417 7.062 21.168 19.291 51.68 46.809 80.141 77.484 80.141s58.193-28.461 77.484-80.141c2.52-6.751 4.872-13.825 7.062-21.168 7.371 2.095 14.602 3.908 21.65 5.406 16.127 3.428 30.893 5.122 44.119 5.121 31.023-.001 53.545-9.326 65.091-27.471 16.467-25.881 7.228-64.376-26.018-108.395-7.18-9.505-15.329-19.095-24.312-28.666zm-52.644-130.066c14.359-3.052 27.321-4.551 38.448-4.551 19.59 0 33.48 4.65 39.214 13.662 8.99 14.129-.223 41.871-24.646 74.209-6.395 8.467-13.643 17.023-21.631 25.583-12.727-11.88-26.642-23.612-41.515-34.998-2.103-24.195-5.564-47.34-10.281-68.788 6.96-1.992 13.777-3.708 20.411-5.117zm-56.224 218.404c4.51-2.87 8.96-5.784 13.356-8.731-1.667 12.413-3.728 24.409-6.166 35.878-10.096-3.768-20.397-8.046-30.823-12.795 7.898-4.576 15.786-9.359 23.633-14.352zm-16.105-25.31c-13.327 8.48-26.749 16.335-40.104 23.501-13.356-7.166-26.777-15.021-40.104-23.501-11.528-7.335-22.666-14.933-33.326-22.716-.844-13.172-1.275-26.647-1.275-40.312 0-13.664.431-27.139 1.275-40.312 10.66-7.783 21.798-15.381 33.326-22.716 13.327-8.48 26.748-16.335 40.104-23.501 13.356 7.166 26.778 15.021 40.104 23.501 11.528 7.335 22.666 14.933 33.326 22.716.844 13.172 1.275 26.647 1.275 40.312s-.431 27.139-1.275 40.312c-10.66 7.783-21.797 15.38-33.326 22.716zm-72.679 39.662c-10.426 4.749-20.728 9.027-30.823 12.795-2.438-11.469-4.499-23.465-6.166-35.878 4.396 2.947 8.846 5.861 13.356 8.731 7.846 4.993 15.734 9.776 23.633 14.352zm-71.934-86.734c-6.265-5.279-12.286-10.604-18.046-15.956 5.759-5.351 11.781-10.677 18.046-15.956-.126 5.291-.196 10.609-.196 15.956s.07 10.665.196 15.956zm34.944-95.563c1.667-12.413 3.728-24.409 6.166-35.878 10.096 3.768 20.397 8.046 30.824 12.795-7.899 4.576-15.787 9.359-23.634 14.352-4.511 2.87-8.96 5.784-13.356 8.731zm102.14-23.083c10.426-4.749 20.728-9.027 30.823-12.795 2.438 11.469 4.499 23.465 6.166 35.878-4.396-2.947-8.846-5.861-13.356-8.731-7.846-4.993-15.734-9.776-23.633-14.352zm71.934 86.734c6.265 5.279 12.286 10.604 18.046 15.956-5.759 5.351-11.781 10.677-18.046 15.956.126-5.291.196-10.609.196-15.956s-.07-10.665-.196-15.956zm-153.887-148.726c14.171-37.966 32.631-60.632 49.378-60.632s35.207 22.666 49.378 60.632c2.372 6.353 4.583 13.026 6.64 19.968-18.22 6.655-37.03 14.847-56.019 24.397-18.989-9.55-37.799-17.742-56.019-24.397 2.058-6.942 4.27-13.615 6.642-19.968zm-140.717 43.726c5.734-9.012 19.621-13.662 39.214-13.662 11.125 0 24.092 1.5 38.448 4.551 6.633 1.41 13.451 3.126 20.411 5.117-4.717 21.448-8.178 44.593-10.281 68.788-14.873 11.386-28.788 23.118-41.515 34.998-7.988-8.56-15.236-17.116-21.631-25.583-24.423-32.338-33.636-60.079-24.646-74.209zm77.662 251.022c-39.639 8.424-68.671 5.019-77.662-9.111-8.99-14.129.223-41.871 24.646-74.209 6.395-8.467 13.643-17.023 21.631-25.583 12.727 11.88 26.642 23.612 41.515 34.998 2.103 24.195 5.564 47.34 10.281 68.788-6.96 1.992-13.777 3.708-20.411 5.117zm161.811 34.616c-14.172 37.966-32.631 60.632-49.378 60.632s-35.207-22.666-49.378-60.632c-2.372-6.353-4.583-13.026-6.64-19.968 18.22-6.655 37.03-14.847 56.019-24.397 18.989 9.55 37.799 17.742 56.019 24.397-2.058 6.942-4.27 13.615-6.642 19.968zm140.717-43.726c-8.99 14.13-38.022 17.536-77.662 9.111-6.633-1.41-13.451-3.126-20.411-5.117 4.717-21.448 8.178-44.593 10.281-68.788 14.873-11.386 28.788-23.118 41.515-34.998 7.988 8.56 15.236 17.116 21.631 25.583 24.423 32.337 33.636 60.079 24.646 74.209z"/><ellipse cx="255.314" cy="255.314" rx="44.107" ry="44.107" transform="matrix(.099 -.995 .995 .099 -23.916 484.227)"/></svg>